<svg width="28" height="28" viewBox="0 0 28 28" fill="none" xmlns="http://www.w3.org/2000/svg">
<path d="M23.6421 9.3413L22.0501 6.69195L13.9938 4L5.93743 6.69195L4.3605 9.31456C3.9646 9.97627 3.89125 10.77 4.15796 11.4927C4.41634 12.1937 4.96143 12.7359 5.65821 12.9907L5.65155 21.2153L13.9863 24L22.321 21.2153L22.3277 12.9907C23.0328 12.7434 23.5837 12.2004 23.8438 11.4969C24.108 10.7809 24.0346 9.99549 23.6421 9.33963V9.3413ZM18.8604 7.38792L14.0005 9.01379L9.1388 7.38374L13.9938 5.76122L18.8604 7.38792ZM5.78907 10.176L6.86592 8.38382L12.7402 10.3531L11.4659 12.4827C11.2667 12.8153 10.8533 12.9682 10.4882 12.8454L6.25331 11.4309C6.00577 11.3481 5.81157 11.1602 5.72072 10.9145C5.63071 10.6697 5.65488 10.399 5.78907 10.176ZM7.32516 13.5497L9.96144 14.4303C11.0808 14.8046 12.2885 14.3568 12.8961 13.3425L13.1595 12.903L13.1553 21.9622L7.32099 20.013L7.326 13.5505L7.32516 13.5497ZM14.8214 21.9614L14.8256 12.8972L15.0915 13.3416C15.5549 14.117 16.3684 14.5606 17.226 14.5606C17.4919 14.5606 17.7619 14.518 18.0261 14.4294L20.6607 13.5497L20.6557 20.0114L14.8214 21.9614ZM22.281 10.9195C22.1935 11.1577 22.0051 11.3398 21.7651 11.42L17.4994 12.8454C17.1343 12.9682 16.7209 12.8161 16.5217 12.4827L15.2498 10.3581L21.1267 8.39218L22.2143 10.2027C22.3444 10.4199 22.3694 10.6814 22.281 10.9195Z" fill="#231F20"/>
</svg>
