<svg width="22" height="25" viewBox="0 0 22 25" fill="none" xmlns="http://www.w3.org/2000/svg">
<path d="M14.0618 15.4058C14.0035 15.4058 13.9446 15.3959 13.8876 15.3754C13.6828 15.3019 13.5463 15.1077 13.5463 14.8902V11.0298L3.85923 5.43776C3.61262 5.29535 3.5281 4.98002 3.67046 4.73341C3.81282 4.4868 4.1281 4.40234 4.37481 4.54465L14.3198 10.2855C14.4793 10.3776 14.5776 10.5479 14.5776 10.7321V13.4551L15.6672 12.1345C15.7903 11.9853 15.9864 11.9176 16.1754 11.9589L17.1453 12.1715V8.95202L7.45234 3.35927C7.20568 3.21696 7.12112 2.90163 7.26343 2.65498C7.40574 2.40832 7.72107 2.32376 7.96773 2.46607L17.9185 8.2076C18.0782 8.29971 18.1764 8.46996 18.1764 8.65423V12.8124C18.1764 12.9685 18.1057 13.1162 17.9841 13.2141C17.8624 13.312 17.7029 13.3494 17.5505 13.316L16.2622 13.0337L14.4597 15.2184C14.3598 15.3394 14.2128 15.4058 14.0618 15.4058Z" fill="#F38231"/>
<path d="M21.4245 6.56725C21.4231 6.56364 21.4218 6.55994 21.4203 6.55638C21.4175 6.55 21.4141 6.54382 21.411 6.53749C21.3669 6.44435 21.296 6.36447 21.2037 6.31118L11.2579 0.569082C11.0984 0.476973 10.9018 0.476973 10.7422 0.569082L0.869016 6.26936C0.761578 6.30996 0.666938 6.38636 0.605063 6.49352C0.549188 6.59022 0.528703 6.69743 0.538688 6.80069V18.2422C0.538688 18.4264 0.636984 18.5966 0.7965 18.6887L10.7423 24.4309C10.9019 24.523 11.0984 24.523 11.2579 24.4309L21.2037 18.6887C21.3632 18.5966 21.4615 18.4263 21.4615 18.2422V6.8125C21.4693 6.73075 21.4575 6.64671 21.4245 6.56725ZM11.0001 1.61102L19.921 6.7615L11.0004 11.9046L2.08927 6.75564L11.0001 1.61102ZM1.56989 7.64655L10.4844 12.7975V23.0913L1.56989 17.9445V7.64655ZM11.5157 23.0913V12.7978L20.4303 7.65827V17.9445L11.5157 23.0913Z" fill="black"/>
<path d="M5.00033 18.702C4.91286 18.702 4.82422 18.6797 4.74299 18.6329L2.61214 17.4026C2.36553 17.2602 2.28102 16.9449 2.42342 16.6983C2.56583 16.4517 2.88121 16.3673 3.12777 16.5096L5.25861 17.7398C5.50522 17.8822 5.58974 18.1975 5.44733 18.4441C5.35185 18.6095 5.17855 18.702 5.00033 18.702Z" fill="#F38231"/>
<path d="M4.04132 16.0478C3.95385 16.0478 3.86521 16.0255 3.78397 15.9786L2.61214 15.3021C2.36553 15.1597 2.28102 14.8443 2.42342 14.5977C2.56583 14.3511 2.88121 14.2666 3.12777 14.409L4.2996 15.0855C4.54621 15.228 4.63072 15.5433 4.48832 15.7899C4.39283 15.9553 4.21949 16.0478 4.04132 16.0478Z" fill="#F38231"/>
</svg>
