<svg width="24" height="25" viewBox="0 0 24 25" fill="none" xmlns="http://www.w3.org/2000/svg">
<path d="M11.9999 14.9623C9.56906 14.9623 7.59131 12.9846 7.59131 10.5537C7.59131 8.12272 9.56901 6.14502 11.9999 6.14502C14.4309 6.14502 16.4086 8.12272 16.4086 10.5537C16.4086 12.9846 14.4309 14.9623 11.9999 14.9623ZM11.9999 7.17632C10.1377 7.17632 8.62256 8.69141 8.62256 10.5537C8.62256 12.416 10.1377 13.9311 11.9999 13.9311C13.8622 13.9311 15.3774 12.416 15.3774 10.5537C15.3774 8.69141 13.8622 7.17632 11.9999 7.17632Z" fill="#F38231"/>
<path d="M18.8093 21.625C17.7506 18.8041 15.0142 16.9087 12 16.9087C8.98585 16.9087 6.24942 18.8041 5.19075 21.625L4.22522 21.2627C4.81275 19.6971 5.8485 18.3582 7.22049 17.3906C8.62402 16.4007 10.2767 15.8774 12 15.8774C13.7232 15.8774 15.376 16.4007 16.7795 17.3906C18.1515 18.3582 19.1872 19.6971 19.7747 21.2627L18.8093 21.625Z" fill="#F38231"/>
<path d="M12 24.5C5.271 24.5 0 19.229 0 12.5C0 5.77105 5.271 0.5 12 0.5C18.729 0.5 24 5.77105 24 12.5C24 19.229 18.729 24.5 12 24.5ZM12 1.53125C5.8493 1.53125 1.03125 6.3493 1.03125 12.5C1.03125 18.6507 5.8493 23.4688 12 23.4688C18.1507 23.4688 22.9688 18.6507 22.9688 12.5C22.9688 6.3493 18.1507 1.53125 12 1.53125Z" fill="black"/>
</svg>
