<svg width="20" height="20" viewBox="0 0 20 20" fill="none" xmlns="http://www.w3.org/2000/svg">
<g clip-path="url(#clip0_1866_1680)">
<path d="M9.17316 2.14839L9.16732 15.0134C9.16732 15.2344 9.25512 15.4464 9.4114 15.6026C9.56768 15.7589 9.77964 15.8467 10.0007 15.8467C10.2217 15.8467 10.4336 15.7589 10.5899 15.6026C10.7462 15.4464 10.834 15.2344 10.834 15.0134L10.8398 2.16256L13.2665 4.59006C13.4228 4.74628 13.6347 4.83404 13.8557 4.83404C14.0766 4.83404 14.2885 4.74628 14.4448 4.59006C14.601 4.43378 14.6888 4.22186 14.6888 4.00089C14.6888 3.77992 14.601 3.568 14.4448 3.41172L11.769 0.732556C11.5368 0.500239 11.2612 0.315947 10.9577 0.19021C10.6543 0.0644734 10.3291 -0.000244141 10.0007 -0.000244141C9.67222 -0.000244141 9.34699 0.0644734 9.04358 0.19021C8.74016 0.315947 8.46449 0.500239 8.23232 0.732556L5.55649 3.40922C5.40026 3.5655 5.3125 3.77742 5.3125 3.99839C5.3125 4.21936 5.40026 4.43128 5.55649 4.58756C5.71276 4.74378 5.92469 4.83154 6.14566 4.83154C6.36663 4.83154 6.57855 4.74378 6.73482 4.58756L9.17316 2.14839Z" fill="#FEB406"/>
<path d="M18.3333 14.1667V17.5C18.3333 17.7211 18.2455 17.933 18.0893 18.0893C17.933 18.2456 17.721 18.3334 17.5 18.3334H2.5C2.27899 18.3334 2.06702 18.2456 1.91074 18.0893C1.75446 17.933 1.66667 17.7211 1.66667 17.5V14.1667C1.66667 13.9457 1.57887 13.7337 1.42259 13.5775C1.26631 13.4212 1.05435 13.3334 0.833333 13.3334C0.61232 13.3334 0.400358 13.4212 0.244078 13.5775C0.0877974 13.7337 0 13.9457 0 14.1667L0 17.5C0 18.1631 0.263392 18.799 0.732233 19.2678C1.20107 19.7366 1.83696 20 2.5 20H17.5C18.163 20 18.7989 19.7366 19.2678 19.2678C19.7366 18.799 20 18.1631 20 17.5V14.1667C20 13.9457 19.9122 13.7337 19.7559 13.5775C19.5996 13.4212 19.3877 13.3334 19.1667 13.3334C18.9457 13.3334 18.7337 13.4212 18.5774 13.5775C18.4211 13.7337 18.3333 13.9457 18.3333 14.1667Z" fill="black"/>
</g>
<defs>
<clipPath id="clip0_1866_1680">
<rect width="20" height="20" fill="white"/>
</clipPath>
</defs>
</svg>
